<svg xmlns="http://www.w3.org/2000/svg" width="36.969" height="30.06" viewBox="0 0 36.969 30.06">
  <metadata><?xpacket begin="﻿" id="W5M0MpCehiHzreSzNTczkc9d"?>
<x:xmpmeta xmlns:x="adobe:ns:meta/" x:xmptk="Adobe XMP Core 5.6-c142 79.160924, 2017/07/13-01:06:39        ">
   <rdf:RDF xmlns:rdf="http://www.w3.org/1999/02/22-rdf-syntax-ns#">
      <rdf:Description rdf:about=""/>
   </rdf:RDF>
</x:xmpmeta>
                                                                                                    
                                                                                                    
                                                                                                    
                                                                                                    
                                                                                                    
                                                                                                    
                                                                                                    
                                                                                                    
                                                                                                    
                                                                                                    
                                                                                                    
                                                                                                    
                                                                                                    
                                                                                                    
                                                                                                    
                                                                                                    
                                                                                                    
                                                                                                    
                                                                                                    
                                                                                                    
                           
<?xpacket end="w"?></metadata>
<defs>
    <style>
      .cls-1 {
        fill: #fff;
        fill-rule: evenodd;
      }
    </style>
  </defs>
  <path id="Twitter" class="cls-1" d="M968.845,3086.57a15.433,15.433,0,0,1-4.355,1.2,7.637,7.637,0,0,0,3.336-4.2,15.185,15.185,0,0,1-4.817,1.84,7.588,7.588,0,0,0-13.125,5.19,7.7,7.7,0,0,0,.2,1.73,21.519,21.519,0,0,1-15.637-7.93,7.592,7.592,0,0,0,2.347,10.13,7.552,7.552,0,0,1-3.437-.95v0.1a7.6,7.6,0,0,0,6.088,7.44,7.783,7.783,0,0,1-2,.26,6.712,6.712,0,0,1-1.424-.14,7.6,7.6,0,0,0,7.082,5.28,15.235,15.235,0,0,1-9.418,3.24,15.463,15.463,0,0,1-1.812-.1,21.5,21.5,0,0,0,11.63,3.4c13.955,0,21.586-11.56,21.586-21.58,0-.33-0.007-0.66-0.025-0.98A15.423,15.423,0,0,0,968.845,3086.57Z" transform="translate(-931.875 -3083)"/>
</svg>
